<svg xmlns="http://www.w3.org/2000/svg" version="1.1" xmlns:xlink="http://www.w3.org/1999/xlink" xmlns:svgjs="http://svgjs.dev/svgjs" width="1500" height="1500" viewBox="0 0 1500 1500"><rect width="1500" height="1500" fill="#000000"></rect><g transform="matrix(0.6666666666666666,0,0,0.6666666666666666,249.39393939393938,673.3490785950097)"><svg viewBox="0 0 396 61" data-background-color="#ffffff" preserveAspectRatio="xMidYMid meet" height="231" width="1500" xmlns="http://www.w3.org/2000/svg" xmlns:xlink="http://www.w3.org/1999/xlink"><g id="tight-bounds" transform="matrix(1,0,0,1,0.2400000000000091,-0.13827139152982681)"><svg viewBox="0 0 395.52 61.27654278305963" height="61.27654278305963" width="395.52"><g><svg viewBox="0 0 395.52 61.27654278305963" height="61.27654278305963" width="395.52"><g><svg viewBox="0 0 395.52 61.27654278305963" height="61.27654278305963" width="395.52"><g id="textblocktransform"><svg viewBox="0 0 395.52 61.27654278305963" height="61.27654278305963" width="395.52" id="textblock"><g><svg viewBox="0 0 395.52 61.27654278305963" height="61.27654278305963" width="395.52"><g transform="matrix(1,0,0,1,0,0)"><svg width="395.52" viewBox="3.25 -35.01 225.96 35.01" height="61.27654278305963" data-palette-color="#2a2c35"><path d="M31.3-17.5L31.3-17.5Q31.3-15.09 30.68-12.85 30.05-10.62 28.91-8.68 27.76-6.74 26.17-5.14 24.58-3.54 22.63-2.39 20.68-1.25 18.44-0.62 16.21 0 13.79 0L13.79 0 3.25 0 3.25-35.01 13.79-35.01Q16.21-35.01 18.44-34.39 20.68-33.76 22.63-32.62 24.58-31.47 26.17-29.87 27.76-28.27 28.91-26.33 30.05-24.39 30.68-22.16 31.3-19.92 31.3-17.5ZM24.29-17.5L24.29-17.5Q24.29-19.68 23.47-21.58 22.66-23.49 21.23-24.91 19.8-26.34 17.88-27.17 15.97-28 13.79-28L13.79-28 10.3-28 10.3-7.01 13.79-7.01Q15.97-7.01 17.88-7.82 19.8-8.64 21.23-10.07 22.66-11.5 23.47-13.42 24.29-15.33 24.29-17.5ZM49.95-28L42.94-28 42.94-13.99 49.95-13.99Q51.39-13.99 52.66-14.54 53.93-15.09 54.88-16.04 55.83-16.99 56.38-18.27 56.93-19.56 56.93-21L56.93-21Q56.93-22.44 56.38-23.72 55.83-25 54.88-25.95 53.93-26.9 52.66-27.45 51.39-28 49.95-28L49.95-28ZM42.94-7.01L42.94 0 35.94 0 35.94-35.01 49.95-35.01Q51.88-35.01 53.66-34.51 55.44-34.01 56.99-33.09 58.54-32.18 59.82-30.9 61.11-29.61 62.02-28.05 62.94-26.49 63.44-24.71 63.94-22.92 63.94-21L63.94-21Q63.94-19.19 63.49-17.48 63.03-15.77 62.19-14.23 61.35-12.7 60.13-11.4 58.91-10.11 57.39-9.16L57.39-9.16 61.28 0 53.83 0 50.78-7.06 42.94-7.01ZM75.53-35.01L75.53 0 68.53 0 68.53-35.01 75.53-35.01ZM96.04-28L89.03-28 89.03-13.99 96.04-13.99Q97.48-13.99 98.75-14.54 100.02-15.09 100.97-16.04 101.92-16.99 102.47-18.27 103.02-19.56 103.02-21L103.02-21Q103.02-22.44 102.47-23.72 101.92-25 100.97-25.95 100.02-26.9 98.75-27.45 97.48-28 96.04-28L96.04-28ZM89.03-7.01L89.03 0 82.02 0 82.02-35.01 96.04-35.01Q97.97-35.01 99.75-34.51 101.53-34.01 103.08-33.09 104.63-32.18 105.91-30.9 107.19-29.61 108.11-28.05 109.03-26.49 109.53-24.71 110.03-22.92 110.03-21L110.03-21Q110.03-18.12 108.93-15.56 107.83-13.01 105.93-11.11 104.02-9.2 101.47-8.11 98.92-7.01 96.04-7.01L96.04-7.01 89.03-7.01ZM138.64-7.01L138.64 0 114.13 0 114.13-35.01 121.13-35.01 121.13-7.01 138.64-7.01ZM168.69-35.01L168.69-13.99Q168.69-11.08 167.59-8.53 166.49-5.98 164.59-4.09 162.68-2.2 160.13-1.1 157.58 0 154.68 0L154.68 0Q151.77 0 149.22-1.1 146.67-2.2 144.78-4.09 142.88-5.98 141.78-8.53 140.69-11.08 140.69-13.99L140.69-13.99 140.69-35.01 147.67-35.01 147.67-13.99Q147.67-12.55 148.22-11.28 148.77-10.01 149.72-9.06 150.67-8.11 151.95-7.56 153.23-7.01 154.68-7.01L154.68-7.01Q156.12-7.01 157.4-7.56 158.68-8.11 159.63-9.06 160.58-10.01 161.13-11.28 161.68-12.55 161.68-13.99L161.68-13.99 161.68-35.01 168.69-35.01ZM191.22-17.5L201.96 0 193.47 0 186.73-11.3 179.97 0 171.52 0 182.26-17.5 171.52-35.01 179.97-35.01 186.73-23.71 193.47-35.01 201.96-35.01 191.22-17.5ZM229.21-7.01L229.21 0 205.21 0 205.21-35.01 229.21-35.01 229.21-28 212.21-28 212.21-21 223.71-21 223.71-13.99 212.21-13.99 212.21-7.01 229.21-7.01Z" opacity="1" transform="matrix(1,0,0,1,0,0)" fill="#ffffff" class="wordmark-text-0" data-fill-palette-color="primary" id="text-0"></path></svg></g></svg></g></svg></g></svg></g></svg></g><defs></defs></svg><rect width="395.52" height="61.27654278305963" fill="none" stroke="none" visibility="hidden"></rect></g></svg></g></svg>